# xmcd
#
# Track frame offsets:
#	150
#	10905
#	24860
#	35110
#	48945
#	62017
#	78690
#	89775
#	101615
#	113352
#	124375
#	137670
#	150230
#	162690
#	180815
#	196240
#
# Disc length: 2852
#
# Revision: 2
# Processed by: cddbd v1.5.1PL0 Copyright (c) Steve Scherf et al.
# Submitted via: CDmax 1.5
# Normalized: r0:TDELIM( - ),TSWAP
#
DISCID=c90b2210
DTITLE=Misc Artists - American Country and Western Supertracks CD1
DYEAR=1900
DGENRE=
TTITLE0=Lero von Dyke - Wake on By
TTITLE1=Rex Allen - Don´t go near the indians
TTITLE2=Rusty Draper - Mule-Skinner Blues
TTITLE3=Petti Page - Tennessee Waltz
TTITLE4=Hank Williams SR. - Jambala (On the Bayou)
TTITLE5=Larry Weiss - Rhinestone Cowboy
TTITLE6=Roger Miller - King of the road
TTITLE7=Dave Dudley - Six Days on the road
TTITLE8=Jerry Lee Lewis - Whats made Milwaukee famous
TTITLE9=The Statler Brothers - Flowers on the wall
TTITLE10=Faron Young - Gentle on my Mind
TTITLE11=Jonny Cash - Folsom Prison Blues
TTITLE12=Tom T. Hall - The year that Clayton Delaney died
TTITLE13=C. W. Mccall - Convoy
TTITLE14=Billy Ray Cyrus - Achy Braky Heart
TTITLE15=Jonny Cash - Sunday morning coming dows
EXTD=(p) and (C) 1996 PolyGram GmbH Hamburg\nPolymedia Marketing Group \n\nSat°1\nNew Buisness Development (NBD) 1996
EXTT0=
EXTT1=
EXTT2=
EXTT3=
EXTT4=
EXTT5=
EXTT6=
EXTT7=
EXTT8=
EXTT9=
EXTT10=
EXTT11=
EXTT12=
EXTT13=
EXTT14=
EXTT15=
PLAYORDER=
